<?xml version="1.0" encoding="utf-8"?>
<!-- Generator: Adobe Illustrator 16.0.3, SVG Export Plug-In . SVG Version: 6.00 Build 0)  -->
<!DOCTYPE svg PUBLIC "-//W3C//DTD SVG 1.1//EN" "http://www.w3.org/Graphics/SVG/1.1/DTD/svg11.dtd">
<svg version="1.1" id="Layer_1" xmlns="http://www.w3.org/2000/svg" xmlns:xlink="http://www.w3.org/1999/xlink" x="0px" y="0px"
	 viewBox="0 0 2500 2500" enable-background="new 0 0 2500 2500" xml:space="preserve">
<path fill="#FCD088" d="M0,2177.646C0,2355.693,144.326,2500,322.354,2500h1855.283c178.057,0,322.363-144.326,322.363-322.354
	V322.363C2500,144.307,2355.674,0,2177.646,0H322.363C144.307,0,0,144.326,0,322.354v1855.283V2177.646z"/>
<path fill="#FFFFFF" d="M1036.699,1105.84V751.807h311.631c29.688,0,58.301,2.471,85.859,7.422
	c27.559,4.941,51.943,13.77,73.145,26.494c21.191,12.725,38.154,30.391,50.879,52.998c12.715,22.617,19.082,51.592,19.082,86.914
	c0,63.604-19.082,109.541-57.246,137.803c-38.154,28.271-86.914,42.402-146.279,42.402H1036.699L1036.699,1105.84z M703.857,493.164
	v1513.672h733.516c67.842,0,133.916-8.477,198.223-25.439s121.543-43.105,171.719-78.438
	c50.166-35.332,90.098-80.918,119.775-136.738c29.688-55.83,44.521-121.904,44.521-198.223c0-94.697-22.969-175.605-68.896-242.734
	c-45.938-67.139-115.547-114.131-208.828-140.986c67.842-32.5,119.082-74.199,153.711-125.078
	c34.619-50.879,51.934-114.473,51.934-190.801c0-70.664-11.66-130.02-34.98-178.076c-23.32-48.047-56.182-86.563-98.584-115.537
	c-42.393-28.975-93.271-49.824-152.637-62.539c-59.355-12.725-125.078-19.082-197.158-19.082H703.857z M1036.699,1748.193v-415.518
	h362.51c72.08,0,130.029,16.602,173.848,49.824c43.809,33.213,65.723,88.682,65.723,166.416c0,39.58-6.719,72.08-20.146,97.52
	s-31.445,45.586-54.063,60.42c-22.607,14.844-48.76,25.439-78.438,31.807c-29.688,6.348-60.771,9.531-93.281,9.531H1036.699
	L1036.699,1748.193z"/>
</svg>
