<?xml version="1.0" encoding="utf-8"?>
<!-- Generator: Adobe Illustrator 16.0.3, SVG Export Plug-In . SVG Version: 6.00 Build 0)  -->
<!DOCTYPE svg PUBLIC "-//W3C//DTD SVG 1.1//EN" "http://www.w3.org/Graphics/SVG/1.1/DTD/svg11.dtd">
<svg version="1.1" id="Layer_1" xmlns="http://www.w3.org/2000/svg" xmlns:xlink="http://www.w3.org/1999/xlink" x="0px" y="0px"
	 viewBox="0 0 2000 2000" enable-background="new 0 0 2000 2000" xml:space="preserve">
<title>HTML5 Logo</title>
<path fill="#FFFFFF" d="M423.438,0h89.844v89.063h82.813V0h89.844v269.531h-89.844v-89.844h-82.031v89.844h-90.625 M804.688,89.844
	h-79.297V0h248.828v89.844h-79.688v179.688h-89.844 M1013.672,0h94.141l57.813,94.922L1223.438,0h94.141v269.531h-89.844V135.938
	l-62.891,96.875l-62.891-96.875v133.594h-88.281 M1362.109,0h89.844v180.469h127.344v89.063h-217.188"/>
<path fill="#FCD088" d="M420.313,1839.844L291.406,392.969h1417.188l-128.906,1446.094L998.828,2000"/>
<path fill="#DDAE76" d="M1000,1876.953V511.719h579.297L1468.75,1746.094"/>
<path fill="#EBEBEB" d="M554.688,688.672H1000v177.344H749.219l16.406,181.641H1000v176.953H603.125 M610.938,1313.672h178.125
	l12.5,141.797L1000,1508.594v185.156l-364.063-101.563"/>
<path fill="#FFFFFF" d="M1443.75,688.672H999.219v177.344h428.125 M1411.328,1047.656H999.219V1225h218.75l-20.703,230.469
	l-198.047,53.125v184.375l363.281-100.781"/>
</svg>
