<?xml version="1.0" encoding="utf-8"?>
<!-- Generator: Adobe Illustrator 16.0.3, SVG Export Plug-In . SVG Version: 6.00 Build 0)  -->
<!DOCTYPE svg PUBLIC "-//W3C//DTD SVG 1.1//EN" "http://www.w3.org/Graphics/SVG/1.1/DTD/svg11.dtd">
<svg version="1.1" id="Layer_1" xmlns="http://www.w3.org/2000/svg" xmlns:xlink="http://www.w3.org/1999/xlink" x="0px" y="0px"
	 viewBox="0 0 2000 2000" enable-background="new 0 0 2000 2000" xml:space="preserve">
<path fill="#FCD088" d="M0,0h2000v2000H0V0z"/>
<path fill="#FFFFFF" d="M525.875,1671.344l153.047-92.625c29.531,52.352,56.391,96.648,120.82,96.648
	c61.758,0,100.703-24.156,100.703-118.125V918.195h187.945v641.703c0,194.664-114.109,283.273-280.594,283.273
	c-150.352,0-237.625-77.867-281.93-171.844 M1190.477,1651.203l153.031-88.602c40.289,65.789,92.648,114.117,185.273,114.117
	c77.883,0,127.539-38.938,127.539-92.641c0-64.438-51.016-87.266-136.938-124.844l-46.977-20.156
	c-135.602-57.711-225.547-130.211-225.547-283.258c0-140.969,107.398-248.375,275.219-248.375
	c119.484,0,205.406,41.625,267.156,150.367l-146.344,93.984c-32.227-57.727-67.117-80.547-120.82-80.547
	c-55.047,0-89.953,34.906-89.953,80.547c0,56.383,34.906,79.219,115.453,114.125l46.984,20.133
	c159.766,68.477,249.711,138.281,249.711,295.344c0,169.172-132.906,261.797-311.461,261.797
	c-174.523,0-287.297-83.234-342.336-191.984"/>
</svg>
