<?xml version="1.0" encoding="utf-8"?>
<!-- Generator: Adobe Illustrator 16.0.3, SVG Export Plug-In . SVG Version: 6.00 Build 0)  -->
<!DOCTYPE svg PUBLIC "-//W3C//DTD SVG 1.1//EN" "http://www.w3.org/Graphics/SVG/1.1/DTD/svg11.dtd">
<svg version="1.1" id="Layer_1" xmlns="http://www.w3.org/2000/svg" xmlns:xlink="http://www.w3.org/1999/xlink" x="0px" y="0px"
	 viewBox="0 0 2000 2000" enable-background="new 0 0 2000 2000" xml:space="preserve">
<path fill="#FCD088" d="M145.517,499.967C-27.818,749.054-6.246,1073.161,126.184,1337.88l9.69,18.813l6.201,11.931l3.866,6.86
	l6.908,12.354c4.102,7.237,8.322,14.429,12.637,21.667l7.215,11.883c4.786,7.686,9.666,15.324,14.665,22.939l6.248,9.643
	c6.908,10.304,13.958,20.56,21.243,30.674l0.613,0.777l3.584,4.834c6.295,8.676,12.778,17.258,19.356,25.769l7.285,9.266
	c5.871,7.38,11.835,14.688,17.895,22.021l6.837,8.158c8.134,9.572,16.457,19.144,24.92,28.48l0.495,0.519l0.967,1.061
	c8.275,9.03,16.739,17.871,25.345,26.713l8.11,8.181c6.648,6.696,13.415,13.273,20.229,19.828l8.275,7.875
	c9.125,8.582,18.319,17.021,27.727,25.227l0.424,0.377l4.833,4.103c8.275,7.191,16.692,14.264,25.18,21.267l10.421,8.322
	c6.932,5.54,13.934,11.034,20.983,16.409l11.246,8.512c7.78,5.729,15.631,11.363,23.553,16.904l8.558,6.082l2.381,1.698
	c7.497,5.187,15.207,10.161,22.869,15.136l9.902,6.602c11.788,7.427,23.742,14.807,35.813,21.927l9.902,5.587
	c8.889,5.116,17.824,10.162,26.877,15.065l14.877,7.687l19.238,9.996l4.433,2.146l7.875,3.796
	c10.067,4.81,20.229,9.549,30.485,14.122l6.436,2.877c11.741,5.14,23.601,10.067,35.554,14.806l8.676,3.396
	c11.058,4.291,22.28,8.464,33.549,12.425l4.22,1.462c12.354,4.338,24.85,8.322,37.417,12.26l9.03,2.688
	c12.778,3.866,25.439,8.44,38.619,10.893c838.221,152.848,1081.696-503.691,1081.696-503.691
	c-204.503,266.416-567.466,336.675-911.378,258.447c-13.038-2.947-25.676-7.026-38.384-10.751l-9.572-2.924
	c-12.401-3.796-24.731-7.78-36.968-12.023l-5.069-1.815c-10.963-3.867-21.785-7.922-32.583-12.095l-9.148-3.584
	c-11.812-4.668-23.577-9.549-35.176-14.617l-7.026-3.136c-9.973-4.504-19.852-9.054-29.683-13.793l-8.582-4.126
	c-7.71-3.748-15.325-7.732-22.964-11.67l-15.301-8.04c-9.313-4.951-18.437-10.138-27.514-15.419l-9.29-5.163
	c-12.095-7.144-24.024-14.5-35.836-21.974l-9.667-6.437c-8.558-5.517-17.093-11.151-25.486-16.951l-8.228-5.776
	c-8.11-5.706-16.15-11.529-24.095-17.399l-10.68-8.087c-7.309-5.588-14.571-11.223-21.738-16.999l-9.69-7.78
	c-9.148-7.497-18.178-15.089-27.09-22.846l-2.971-2.476c-9.643-8.464-19.121-17.164-28.48-25.887l-8.016-7.733
	c-6.932-6.578-13.769-13.227-20.464-20.063l-8.016-8.017c-8.535-8.724-16.904-17.564-25.109-26.547l-1.25-1.344
	c-8.676-9.479-17.164-19.168-25.463-28.976l-6.672-7.922c-6.201-7.45-12.331-15.042-18.319-22.657l-6.72-8.37
	c-7.238-9.359-14.264-18.696-21.171-28.174c-190.924-260.45-259.532-619.664-106.92-914.655 M683.536,290.088
	c-125.333,180.361-118.543,421.856-20.748,612.591c16.386,31.97,34.823,63.021,55.429,92.539
	c18.767,26.947,39.608,58.964,64.529,80.584c9.03,9.949,18.484,19.663,28.127,29.188l7.403,7.332
	c9.36,9.077,18.885,18.013,28.716,26.688l1.179,1.014l0.283,0.283c10.892,9.549,22.138,18.72,33.549,27.773l7.615,5.941
	c11.458,8.771,23.129,17.399,35.106,25.628l1.014,0.777l16.032,10.539l7.591,5.021c8.559,5.494,17.211,10.822,26.029,15.938
	l3.678,2.17c7.592,4.361,15.278,8.652,22.988,12.849l8.182,4.244l16.079,8.346l2.429,1.108
	c11.057,5.423,22.186,10.681,33.572,15.631l7.403,3.065c9.101,3.843,18.272,7.615,27.515,11.151l11.788,4.339
	c8.394,3.112,16.786,5.965,25.274,8.794l11.41,3.654c12.048,3.725,23.978,8.464,36.521,10.563
	c647.179,107.203,796.584-391.089,796.584-391.089c-134.67,193.988-395.498,286.526-673.82,214.287
	c-12.354-3.253-24.567-6.79-36.661-10.586l-11.011-3.56c-8.605-2.759-17.164-5.729-25.628-8.818l-11.576-4.314
	c-9.289-3.583-18.484-7.285-27.608-11.151l-7.427-3.136c-11.435-4.975-22.681-10.232-33.762-15.702l-16.928-8.605l-9.761-5.021
	c-7.214-3.914-14.382-7.969-21.431-12.118l-5.116-2.9c-8.771-5.116-17.399-10.373-25.935-15.844l-7.828-5.21l-16.786-11.128
	c-11.93-8.229-23.553-16.834-34.987-25.58l-7.875-6.225C882.853,894.97,786.283,763.506,740.379,614.455
	C692.259,459.863,702.633,286.339,786,145.492 M1136.043,133.279c-73.889,108.736-81.15,243.806-29.871,363.905
	c54.061,127.479,164.848,227.468,294.165,274.904l16.079,5.541l7.073,2.263c7.615,2.405,15.184,5.187,23.058,6.649
	c357.352,69.056,454.275-183.355,480.068-220.536c-84.9,122.245-227.586,151.598-402.666,109.089
	c-13.815-3.348-29.022-8.346-42.344-13.085c-17.093-6.106-33.927-13.038-50.313-20.889c-31.074-14.947-60.71-33.054-88.2-53.802
	c-156.667-118.874-253.968-345.61-151.739-530.286"/>
</svg>
